<?xml version="1.0" encoding="UTF-8" standalone="no"?>
<!-- Created with Inkscape (http://www.inkscape.org/) -->

<svg
   version="1.1"
   id="svg1"
   width="154.94667"
   height="154.94667"
   viewBox="0 0 154.94667 154.94667"
   sodipodi:docname="mir.eps"
   xmlns:inkscape="http://www.inkscape.org/namespaces/inkscape"
   xmlns:sodipodi="http://sodipodi.sourceforge.net/DTD/sodipodi-0.dtd"
   xmlns="http://www.w3.org/2000/svg"
   xmlns:svg="http://www.w3.org/2000/svg">
  <defs
     id="defs1" />
  <sodipodi:namedview
     id="namedview1"
     pagecolor="#ffffff"
     bordercolor="#000000"
     borderopacity="0.25"
     inkscape:showpageshadow="2"
     inkscape:pageopacity="0.0"
     inkscape:pagecheckerboard="0"
     inkscape:deskcolor="#d1d1d1">
    <inkscape:page
       x="0"
       y="0"
       inkscape:label="1"
       id="page1"
       width="154.94667"
       height="154.94667"
       margin="0"
       bleed="0" />
  </sodipodi:namedview>
  <g
     id="g1"
     inkscape:groupmode="layer"
     inkscape:label="1">
    <path
       id="path1"
       d="M 1142.52,161.914 C 1142.52,83.5039 1079,20 1000.6,20 H 161.98 C 83.5625,20 20,83.5039 20,161.914 V 1000.5 c 0,78.43 63.5625,142.01 141.98,142.01 h 838.62 c 78.4,0 141.92,-63.58 141.92,-142.01 V 161.914"
       style="fill:#00adef;fill-opacity:1;fill-rule:nonzero;stroke:none"
       transform="matrix(0.13333333,0,0,-0.13333333,0,154.94667)" />
    <path
       id="path2"
       d="M 1142.52,161.914 C 1142.52,83.5039 1079,20 1000.6,20 H 161.98 C 83.5625,20 20,83.5039 20,161.914 V 1000.5 c 0,78.43 63.5625,142.01 141.98,142.01 h 838.62 c 78.4,0 141.92,-63.58 141.92,-142.01 z"
       style="fill:none;stroke:#ffffff;stroke-width:40;stroke-linecap:butt;stroke-linejoin:miter;stroke-miterlimit:4;stroke-dasharray:none;stroke-opacity:1"
       transform="matrix(0.13333333,0,0,-0.13333333,0,154.94667)" />
    <path
       id="path3"
       d="m 888.34,486.504 c 83.855,27.226 129.66,117.199 102.43,200.957 -27.188,83.711 -117.149,129.551 -200.918,102.352 -29.122,-9.461 -53.524,-26.625 -72,-48.356 -0.274,0.207 -0.539,0.434 -0.821,0.641 14.949,24.281 23.731,52.765 23.739,83.371 -0.028,88.066 -71.422,159.461 -159.54,159.461 -88.054,0 -159.421,-71.395 -159.421,-159.461 0,-30.926 8.945,-59.699 24.171,-84.141 -0.226,-0.176 -0.453,-0.363 -0.675,-0.535 -18.539,22.062 -43.137,39.477 -72.551,49.02 -83.801,27.199 -173.762,-18.641 -200.977,-102.352 -27.218,-83.836 18.582,-173.731 102.344,-200.957 31.168,-10.168 63.188,-10.156 92.524,-1.867 -28.598,-10.528 -54.5,-29.324 -73.762,-55.86 -51.762,-71.257 -35.957,-170.906 35.308,-222.73 71.262,-51.848 170.942,-36.027 222.754,35.242 19.309,26.57 29.196,57.109 30.34,87.629 1.153,-30.52 11.039,-61.047 30.348,-87.629 51.773,-71.269 151.472,-87.09 222.754,-35.242 71.25,51.824 87.019,151.473 35.281,222.73 -19.297,26.555 -45.273,45.371 -73.938,55.891 29.368,-8.332 61.418,-8.34 92.61,1.836 z M 581.348,336.992 c -0.02,-1.437 -0.082,-2.871 -0.059,-4.308 0.02,1.437 -0.043,2.871 -0.062,4.308 0.039,0 0.078,0 0.121,0"
       style="fill:#ffffff;fill-opacity:1;fill-rule:nonzero;stroke:none"
       transform="matrix(0.13333333,0,0,-0.13333333,0,154.94667)" />
    <path
       id="path4"
       d="m 532.02,705.977 c 83.761,27.265 173.71,-18.516 200.937,-102.352 27.207,-83.711 -18.609,-173.75 -102.422,-200.93 -83.699,-27.285 -173.719,18.594 -200.918,102.391 -27.254,83.781 18.606,173.723 102.403,200.891 v 0"
       style="fill:#fcd205;fill-opacity:1;fill-rule:nonzero;stroke:none"
       transform="matrix(0.13333333,0,0,-0.13333333,0,154.94667)" />
    <path
       id="path5"
       d="m 848.77,977.969 c 11.171,0 22.253,-3.008 32.918,-8.692 10.839,-5.898 19.218,-14.14 25.187,-24.882 5.969,-10.938 8.992,-22.188 8.992,-33.957 0,-11.61 -3.023,-22.653 -8.902,-33.231 -5.883,-10.742 -14.184,-19.18 -24.785,-25.019 -10.754,-5.911 -21.938,-8.965 -33.41,-8.965 -11.75,0 -23.016,3.054 -33.586,8.965 -10.782,5.839 -19.09,14.277 -24.957,25.019 -5.969,10.578 -8.832,21.621 -8.832,33.231 0,11.769 2.863,23.019 8.918,33.957 6.14,10.742 14.519,18.984 25.273,24.882 10.652,5.684 21.836,8.692 33.184,8.692 z m 0,-11.258 c -9.582,0 -18.731,-2.492 -27.801,-7.356 -8.91,-4.707 -15.871,-11.808 -20.996,-20.664 -4.961,-9.093 -7.582,-18.496 -7.582,-28.253 0,-9.52 2.621,-18.926 7.5,-27.704 5.019,-9.082 11.894,-15.918 20.812,-20.976 8.914,-4.875 18.223,-7.442 28.067,-7.442 9.582,0 18.875,2.567 27.707,7.442 8.98,5.058 15.875,11.894 20.914,20.976 4.867,8.778 7.406,18.184 7.406,27.704 0,9.757 -2.539,19.16 -7.563,28.253 -5.144,8.856 -12.019,15.957 -21.011,20.664 -8.989,4.864 -18.149,7.356 -27.453,7.356 z m -29.754,-93.547 v 72.707 h 25.054 c 8.457,0 14.614,-0.664 18.457,-2.004 3.789,-1.367 6.993,-3.672 9.161,-7.078 2.265,-3.332 3.441,-6.836 3.441,-10.559 0,-5.332 -1.938,-10.066 -5.703,-13.925 -3.867,-3.907 -8.91,-6.035 -15.207,-6.563 2.597,-1.027 4.636,-2.383 6.211,-3.847 2.949,-3.067 6.472,-7.774 10.769,-14.473 l 8.899,-14.258 h -14.289 l -6.461,11.387 c -5.2,9.082 -9.243,14.804 -12.356,16.984 -2.195,1.668 -5.183,2.528 -9.394,2.528 h -6.907 v -30.899 h -11.675 z m 11.675,40.82 h 14.454 c 6.73,0 11.496,1.024 14.101,3.02 2.363,2.168 3.711,4.871 3.711,8.242 0,1.953 -0.574,4.031 -1.758,5.672 -1.258,1.883 -2.937,3.066 -5.047,3.906 -2.175,0.801 -6.125,1.348 -11.925,1.348 h -13.536 v -22.188 0"
       style="fill:#ffffff;fill-opacity:1;fill-rule:nonzero;stroke:none"
       transform="matrix(0.13333333,0,0,-0.13333333,0,154.94667)" />
  </g>
</svg>
